<svg xmlns="http://www.w3.org/2000/svg" viewBox="0 0 47.83 43.78"><defs><style>.cls-1{fill:#1d1d1b;}</style></defs><title>check</title><g id="Layer_2" data-name="Layer 2"><g id="Layer_1-2" data-name="Layer 1"><g id="back"><path class="cls-1" d="M47.83,12.85c-.25-1.26-.49-2.52-.74-3.78a.34.34,0,0,0,0-.17l0-.09a.26.26,0,0,0-.14-.2.3.3,0,0,0-.1-.2A71.39,71.39,0,0,0,36.32.06a.31.31,0,0,0-.49.22s0,0,0,0Q24,13.64,13,27.67l0,0L6.4,23a.35.35,0,0,0-.41.06c-1.92,2-3.85,4-5.78,6.05a.33.33,0,0,0-.07.35.32.32,0,0,0-.13.23.33.33,0,0,0,.1.34,17.33,17.33,0,0,0,2.3,4.54.31.31,0,0,0,.16.12.21.21,0,0,0,.1.08A71.27,71.27,0,0,1,14,42.46l0,0a.29.29,0,0,0,.32.24c.37.31.74.62,1.1.94A.36.36,0,0,0,16,43.6l.08-.07a.24.24,0,0,0,.14-.09c1.19-1.35,2.4-2.69,3.62-4,.28.12.66-.16.44-.45v0l1.51-1.6c.27.1.61-.16.43-.45,1.22-1.26,2.45-2.5,3.69-3.74a.39.39,0,0,0,.25-.25q1.86-1.84,3.77-3.64a.34.34,0,0,0,.3-.28l1.33-1.24c.94-.86,1.89-1.71,2.85-2.56.24.11.58-.13.47-.41q2.35-2.09,4.79-4.1a64,64,0,0,0,7.92-7.16.32.32,0,0,0,.08-.3A.35.35,0,0,0,47.83,12.85ZM3,34.18l-.06,0a17.13,17.13,0,0,1-1.86-3.41l1.2.88a.3.3,0,0,0,0,.36,14.73,14.73,0,0,1,1.35,2.54Zm1.53.87a14.75,14.75,0,0,0-1.23-2.68l1.8,1.32a.26.26,0,0,0,0,.23A22.19,22.19,0,0,1,6.5,36.24C5.86,35.83,5.21,35.43,4.54,35.05Zm2.89,1.77a.39.39,0,0,0,0-.26c-.31-.66-.65-1.3-1-1.93l2.06,1.51a.33.33,0,0,0,0,.32L9.15,38C8.58,37.58,8,37.19,7.43,36.82ZM10,38.57a.35.35,0,0,0,0-.33l-.69-1.45L11,38a.48.48,0,0,0,.05.14,13.29,13.29,0,0,1,.86,1.83C11.25,39.47,10.63,39,10,38.57Zm2.71,2a.28.28,0,0,0,0-.22,12.16,12.16,0,0,0-.61-1.55l1.24.91a.28.28,0,0,0,0,.09l.37,1.58Zm1.86,1.52c-.13-.6-.27-1.19-.41-1.79l.9.67h0v0l.27,1.74Zm.79-1.74L.68,29.62h0v0h0l5.59-5.85,6.54,4.69a.29.29,0,0,0,.46-.16.31.31,0,0,0,.19-.12q11-14,22.78-27.32A71.68,71.68,0,0,1,46.33,8.88a.1.1,0,0,0,.06,0h0L44,11.33a.34.34,0,0,0-.14.15L39.37,16a.36.36,0,0,0-.22.23L37.49,18a.36.36,0,0,0-.39.4L18.8,36.9a.33.33,0,0,0-.13.13ZM16,42.59l-.26-1.68a.24.24,0,0,0,.09-.06l.88-.89a5.68,5.68,0,0,0,.54,1.24Zm1.73-1.92a4.73,4.73,0,0,1-.47-1.27l1.55-1.58a6.81,6.81,0,0,0,.54,1.08Zm2.1-2.28a6.13,6.13,0,0,1-.49-1.11L20.68,36c.2.3.41.6.62.89C20.81,37.36,20.33,37.88,19.85,38.39Zm1.92-2-.59-.85,0,0,1.73-1.75a3.35,3.35,0,0,0,.58.91Zm2.16-2.21a2.31,2.31,0,0,1-.47-.8.32.32,0,0,0-.08-.13l1.46-1.48c.19.32.36.64.52,1C24.88,33.19,24.4,33.67,23.93,34.15Zm1.93-1.93c-.16-.34-.34-.66-.53-1l1.28-1.3A3.31,3.31,0,0,0,27.08,31Zm1.72-1.66a2.75,2.75,0,0,1-.36-.95.31.31,0,0,0-.1-.19l1.65-1.67a5.9,5.9,0,0,0,.57,1.12C28.75,29.43,28.16,30,27.58,30.56ZM31,27.3l-1.18,1.1a5.06,5.06,0,0,1-.5-1,.45.45,0,0,0-.06-.12l1.65-1.66.63,1.24Zm1.06-1-.66-1.28,1.74-1.76.8,1.36C33.33,25.21,32.7,25.78,32.08,26.34Zm2.39-2.14-.82-1.39,1.73-1.76a4.26,4.26,0,0,0,.68,1.78Zm2.1-1.82A3.71,3.71,0,0,1,36,20.57a.37.37,0,0,0,0-.12L37.38,19c.29.64.59,1.28.92,1.9Zm2.56-2.15-.3.25c-.34-.65-.65-1.3-.95-2l1.55-1.57c.4.69.78,1.39,1.13,2.11Zm2-1.62c-.36-.73-.75-1.46-1.17-2.17l1.7-1.71A14.93,14.93,0,0,1,43.05,17C42.4,17.53,41.75,18.07,41.09,18.61Zm1-4.36,2-2.06a17.58,17.58,0,0,1,1.17,2.62.2.2,0,0,0,0,.08c-.57.56-1.16,1.1-1.76,1.63A14.74,14.74,0,0,0,42.09,14.25Zm5-1.19c-.39.45-.8.89-1.22,1.31a18,18,0,0,0-1.23-2.68l1.93-1.95L47.17,13A.28.28,0,0,0,47.06,13.06Z"/></g></g></g></svg>
